<svg id="Layer_1" data-name="Layer 1" xmlns="http://www.w3.org/2000/svg" width="265" height="265" viewBox="0 0 265 265"><title>mecha-stilts</title><g id="mecha-stilts"><polygon points="132.2 23.4 227.1 78.2 227.1 187.8 132.2 242.6 37.3 187.8 37.3 78.2 132.2 23.4" fill="#fff"/><path d="M77.1,173.5a1.8,1.8,0,1,1,0-3.6h9V158.6h-9a1.7,1.7,0,0,1-1.8-1.8V121.3a1.7,1.7,0,0,1,1.8-1.8H89c.9-25.6,20-39.6,43.2-39.6s42.3,14,43.2,39.6h11.9a1.7,1.7,0,0,1,1.8,1.8v35.5a1.7,1.7,0,0,1-1.8,1.8h-9v11.3h9a1.8,1.8,0,1,1,0,3.6Zm1.8-50.4V155H185.5V123.1Zm10.8,35.5v11.3h11.5V158.6Zm2.9-39.1h79.2c-.9-23.2-18.5-36-39.6-36S93.5,96.3,92.6,119.5Zm12.2,39.1v11.3h18V158.6Zm21.6,0v11.3H138V158.6Zm48.8-12.3H131.3a1.8,1.8,0,0,1,0-3.6h43.9a1.8,1.8,0,0,1,0,3.6Zm-33.6,12.3v11.3h18V158.6Zm21.6,0v11.3h11.5V158.6Z" fill="#ff9500"/></g></svg>