<svg id="Layer_1" data-name="Layer 1" xmlns="http://www.w3.org/2000/svg" width="265" height="265" viewBox="0 0 265 265"><title>space-bubbles</title><g id="space-bubbles"><polygon points="129 20.4 223.9 75.2 223.9 184.8 129 239.6 34.1 184.8 34.1 75.2 129 20.4" fill="#fff"/><path d="M75.4,174.5l-4.2-6a2,2,0,0,1,.2-2.1l14.9-17.7H79a1.7,1.7,0,0,1-1.8-1.8V134a1.7,1.7,0,0,1,1.8-1.8H89.4a49.4,49.4,0,0,1-2-13.7,42.6,42.6,0,0,1,85.2,0,45.9,45.9,0,0,1-2,13.7H181a1.7,1.7,0,0,1,1.8,1.8v12.9a1.7,1.7,0,0,1-1.8,1.8h-9.2l14.8,17.7a1.8,1.8,0,0,1,0,2.1l-4.1,6a2,2,0,0,1-2.4.5l-8.6-4.5H86.3L77.7,175A1.9,1.9,0,0,1,75.4,174.5Zm27.3-25.8H90.8L75,167.4l2.5,3.6,30.4-16ZM80.8,135.8v9.3h98.4v-9.3Zm12.4-3.6h73.6a45.2,45.2,0,0,0,2.2-13.7,39,39,0,0,0-78,0C91,123.2,91.4,128,93.2,132.2Zm17.3,25.7-17.1,9h24.4Zm-3.1-9.2,15.1,18.2h13l15.1-18.2Zm40.1,9.2-7.3,9h24.4Zm19.7-9.2H155.3l-5.4,6.3,30.6,16,2.5-3.4Z" fill="#ff9500"/></g></svg>