<svg id="Layer_1" data-name="Layer 1" xmlns="http://www.w3.org/2000/svg" width="265" height="265" viewBox="0 0 265 265"><title>super-domes</title><g id="super-domes"><polygon points="132.6 17.4 227.5 72.2 227.5 181.8 132.6 236.6 37.7 181.8 37.7 72.2 132.6 17.4" fill="#fff"/><path d="M80.6,167.5a1.7,1.7,0,0,1-1.8-1.8V143.9H55a1.8,1.8,0,1,1,0-3.6H68.5V128.6a1.7,1.7,0,0,1,1.8-1.8h7a57.2,57.2,0,0,1,55.1-43.7c.2-.2.4-.2.7,0a57,57,0,0,1,54.8,43.7h7a1.7,1.7,0,0,1,1.8,1.8v11.7h13.5a1.8,1.8,0,1,1,0,3.6H186.4v21.8a1.7,1.7,0,0,1-1.8,1.8Zm-8.5-37.1v9.9h121v-9.9ZM129,86.9c-23,1.4-42.3,18.1-47.9,39.9h19.3Zm-46.6,57v20h48.4v-20Zm48.4-53.4-25.9,36.3h25.9Zm3.6-3.8v40.1h49.7A53.6,53.6,0,0,0,134.4,86.7Zm0,57.2v20h8.1v-20Zm11.7,0v20h36.7v-20Z" fill="#ff9500"/></g></svg>